<svg xmlns="http://www.w3.org/2000/svg" viewBox="0 0 600 600">
  <defs>
    <linearGradient id="bg" x1="0%" y1="0%" x2="100%" y2="100%">
      <stop offset="0%" stop-color="#efebe9"/>
      <stop offset="100%" stop-color="#d7ccc8"/>
    </linearGradient>
  </defs>
  <rect width="600" height="600" rx="48" fill="url(#bg)"/>
  <rect x="175" y="120" width="250" height="300" rx="26" fill="#4e342e"/>
  <rect x="205" y="150" width="120" height="90" rx="14" fill="#8d6e63"/>
  <rect x="345" y="150" width="50" height="90" rx="14" fill="#6d4c41"/>
  <rect x="215" y="260" width="170" height="110" rx="20" fill="#bcaaa4"/>
  <path d="M250 260h100v110H250z" fill="#3e2723" opacity=".8"/>
  <path d="M260 230c0-25 15-42 15-62 0-15-6-23-11-31" stroke="#6d4c41" stroke-width="10" fill="none" stroke-linecap="round"/>
  <path d="M300 230c0-25 15-42 15-62 0-15-6-23-11-31" stroke="#6d4c41" stroke-width="10" fill="none" stroke-linecap="round"/>
  <path d="M340 230c0-25 15-42 15-62 0-15-6-23-11-31" stroke="#6d4c41" stroke-width="10" fill="none" stroke-linecap="round"/>
  <path d="M430 305h36a24 24 0 0 1 0 48h-36" fill="none" stroke="#4e342e" stroke-width="14"/>
  <text x="300" y="535" text-anchor="middle" font-family="Arial, Helvetica, sans-serif" font-size="38" font-weight="700" fill="#3e2723">Coffee Maker</text>
</svg>
