<svg xmlns="http://www.w3.org/2000/svg" viewBox="0 0 600 600">
  <defs>
    <linearGradient id="bg" x1="0%" y1="0%" x2="100%" y2="100%">
      <stop offset="0%" stop-color="#e0f7fa"/>
      <stop offset="100%" stop-color="#b2ebf2"/>
    </linearGradient>
  </defs>
  <rect width="600" height="600" rx="48" fill="url(#bg)"/>
  <path d="M120 330c0-34 28-62 62-62h230c34 0 62 28 62 62s-28 62-62 62H182c-34 0-62-28-62-62z" fill="#26c6da"/>
  <path d="M145 330c0-20 17-37 37-37h230c20 0 37 17 37 37s-17 37-37 37H182c-20 0-37-17-37-37z" fill="#4dd0e1"/>
  <circle cx="182" cy="330" r="62" fill="#00acc1"/>
  <circle cx="182" cy="330" r="36" fill="#80deea"/>
  <circle cx="182" cy="330" r="16" fill="#00acc1"/>
  <path d="M250 250h120" stroke="#80deea" stroke-width="8" stroke-linecap="round"/>
  <path d="M270 220h120" stroke="#80deea" stroke-width="8" stroke-linecap="round"/>
  <text x="300" y="535" text-anchor="middle" font-family="Arial, Helvetica, sans-serif" font-size="38" font-weight="700" fill="#006064">Yoga Mat</text>
</svg>
